<svg width="50" height="34" viewBox="0 0 50 34" fill="none" xmlns="http://www.w3.org/2000/svg">
<path d="M2.7974 0C2.24572 0 1.71664 0.219155 1.32654 0.609252C0.93644 0.99935 0.717285 1.52844 0.717285 2.08012C0.717285 2.6318 0.93644 3.16088 1.32654 3.55098C1.71664 3.94108 2.24572 4.16023 2.7974 4.16023H3.82082C4.2725 4.16101 4.71165 4.3088 5.07192 4.58124C5.43218 4.85369 5.69397 5.236 5.81773 5.6704L12.4159 28.7597C12.789 30.0627 13.5763 31.2088 14.6587 32.0247C15.741 32.8405 17.0595 33.2818 18.4149 33.2819H37.423C38.6705 33.2821 39.8893 32.9084 40.9223 32.2091C41.9553 31.5098 42.755 30.517 43.2182 29.3588L49.3504 14.0241C49.6025 13.3931 49.6962 12.71 49.6233 12.0344C49.5504 11.3589 49.3132 10.7114 48.9323 10.1487C48.5514 9.58601 48.0385 9.12516 47.4384 8.80646C46.8383 8.48776 46.1692 8.3209 45.4897 8.32047H10.9015L9.81571 4.52633C9.44348 3.22324 8.65716 2.07673 7.5756 1.26012C6.49404 0.443509 5.17604 0.00118304 3.82082 0H2.7974ZM16.418 27.6115L12.0914 12.4807H45.4856L39.3534 27.8153C39.1988 28.2009 38.9324 28.5314 38.5883 28.7642C38.2443 28.9971 37.8384 29.1215 37.423 29.1216H18.4149C17.9632 29.1208 17.5241 28.9731 17.1638 28.7006C16.8036 28.4282 16.5418 28.0459 16.418 27.6115Z" fill="black"/>
</svg>
