<svg width="25" height="25" viewBox="0 0 25 25" fill="none" xmlns="http://www.w3.org/2000/svg">
<path d="M11.1071 20.6038C13.3886 20.6033 15.6043 19.8395 17.4014 18.4341L23.0518 24.0844L24.8692 22.267L19.2189 16.6166C20.6251 14.8193 21.3893 12.6031 21.3898 10.3211C21.3898 4.65146 16.7768 0.0383911 11.1071 0.0383911C5.43753 0.0383911 0.824463 4.65146 0.824463 10.3211C0.824463 15.9907 5.43753 20.6038 11.1071 20.6038ZM11.1071 2.60906C15.3603 2.60906 18.8192 6.0679 18.8192 10.3211C18.8192 14.5742 15.3603 18.0331 11.1071 18.0331C6.85397 18.0331 3.39513 14.5742 3.39513 10.3211C3.39513 6.0679 6.85397 2.60906 11.1071 2.60906Z" fill="black"/>
</svg>
