<svg width="28" height="26" viewBox="0 0 28 26" fill="none" xmlns="http://www.w3.org/2000/svg">
<path d="M23.8845 8.91909C23.0406 8.92146 22.2181 9.18479 21.5298 9.67297C20.8414 10.1612 20.3209 10.8503 20.0397 11.6459H2.06995C1.70835 11.6459 1.36156 11.7896 1.10588 12.0452C0.850187 12.3009 0.706543 12.6477 0.706543 13.0093C0.706543 13.3709 0.850187 13.7177 1.10588 13.9734C1.36156 14.2291 1.70835 14.3727 2.06995 14.3727H20.0397C20.2898 15.0802 20.7297 15.7052 21.3112 16.1793C21.8928 16.6535 22.5936 16.9586 23.3369 17.0611C24.0802 17.1637 24.8374 17.0598 25.5256 16.7608C26.2138 16.4619 26.8066 15.9794 27.2389 15.3661C27.6713 14.7528 27.9266 14.0324 27.977 13.2838C28.0273 12.5351 27.8707 11.787 27.5244 11.1214C27.1781 10.4557 26.6553 9.89818 26.0133 9.50976C25.3713 9.12133 24.6348 8.91699 23.8845 8.91909ZM23.8845 14.3727C23.6148 14.3727 23.3512 14.2928 23.127 14.1429C22.9028 13.9931 22.728 13.7802 22.6248 13.5311C22.5216 13.2819 22.4946 13.0078 22.5473 12.7433C22.5999 12.4789 22.7297 12.2359 22.9204 12.0452C23.1111 11.8546 23.354 11.7247 23.6185 11.6721C23.883 11.6195 24.1571 11.6465 24.4062 11.7497C24.6553 11.8529 24.8683 12.0276 25.0181 12.2518C25.1679 12.4761 25.2479 12.7397 25.2479 13.0093C25.2479 13.3709 25.1042 13.7177 24.8485 13.9734C24.5929 14.2291 24.2461 14.3727 23.8845 14.3727ZM2.06995 6.19228H3.67877C3.96536 6.9819 4.48813 7.66413 5.17602 8.14626C5.86391 8.62838 6.68356 8.88702 7.52358 8.88702C8.3636 8.88702 9.18325 8.62838 9.87114 8.14626C10.559 7.66413 11.0818 6.9819 11.3684 6.19228H26.6113C26.9729 6.19228 27.3197 6.04863 27.5754 5.79295C27.831 5.53726 27.9747 5.19047 27.9747 4.82887C27.9747 4.46727 27.831 4.12049 27.5754 3.8648C27.3197 3.60911 26.9729 3.46546 26.6113 3.46546H11.3684C11.0818 2.67584 10.559 1.99361 9.87114 1.51149C9.18325 1.02936 8.3636 0.770721 7.52358 0.770721C6.68356 0.770721 5.86391 1.02936 5.17602 1.51149C4.48813 1.99361 3.96536 2.67584 3.67877 3.46546H2.06995C1.70835 3.46546 1.36156 3.60911 1.10588 3.8648C0.850187 4.12049 0.706543 4.46727 0.706543 4.82887C0.706543 5.19047 0.850187 5.53726 1.10588 5.79295C1.36156 6.04863 1.70835 6.19228 2.06995 6.19228ZM7.52358 3.46546C7.79324 3.46546 8.05684 3.54543 8.28105 3.69524C8.50526 3.84505 8.68001 4.05799 8.7832 4.30712C8.8864 4.55625 8.9134 4.83038 8.86079 5.09486C8.80818 5.35933 8.67833 5.60227 8.48765 5.79295C8.29698 5.98362 8.05404 6.11347 7.78957 6.16608C7.52509 6.21869 7.25096 6.19169 7.00183 6.0885C6.7527 5.9853 6.53976 5.81055 6.38995 5.58634C6.24013 5.36213 6.16017 5.09853 6.16017 4.82887C6.16017 4.46727 6.30382 4.12049 6.5595 3.8648C6.81519 3.60911 7.16198 3.46546 7.52358 3.46546ZM26.6113 19.8264H16.822C16.5354 19.0367 16.0127 18.3545 15.3248 17.8724C14.6369 17.3902 13.8172 17.1316 12.9772 17.1316C12.1372 17.1316 11.3175 17.3902 10.6296 17.8724C9.94176 18.3545 9.41899 19.0367 9.1324 19.8264H2.06995C1.70835 19.8264 1.36156 19.97 1.10588 20.2257C0.850187 20.4814 0.706543 20.8282 0.706543 21.1898C0.706543 21.5514 0.850187 21.8981 1.10588 22.1538C1.36156 22.4095 1.70835 22.5532 2.06995 22.5532H9.1324C9.41899 23.3428 9.94176 24.025 10.6296 24.5071C11.3175 24.9893 12.1372 25.2479 12.9772 25.2479C13.8172 25.2479 14.6369 24.9893 15.3248 24.5071C16.0127 24.025 16.5354 23.3428 16.822 22.5532H26.6113C26.9729 22.5532 27.3197 22.4095 27.5754 22.1538C27.831 21.8981 27.9747 21.5514 27.9747 21.1898C27.9747 20.8282 27.831 20.4814 27.5754 20.2257C27.3197 19.97 26.9729 19.8264 26.6113 19.8264ZM12.9772 22.5532C12.7076 22.5532 12.444 22.4732 12.2197 22.3234C11.9955 22.1736 11.8208 21.9606 11.7176 21.7115C11.6144 21.4624 11.5874 21.1882 11.64 20.9238C11.6926 20.6593 11.8225 20.4164 12.0131 20.2257C12.2038 20.035 12.4467 19.9052 12.7112 19.8525C12.9757 19.7999 13.2498 19.8269 13.499 19.9301C13.7481 20.0333 13.961 20.2081 14.1108 20.4323C14.2607 20.6565 14.3406 20.9201 14.3406 21.1898C14.3406 21.5514 14.197 21.8981 13.9413 22.1538C13.6856 22.4095 13.3388 22.5532 12.9772 22.5532Z" fill="white" fill-opacity="0.8"/>
</svg>
