<svg width="58" height="43" viewBox="0 0 58 43" fill="none" xmlns="http://www.w3.org/2000/svg">
<g filter="url(#filter0_d_225_67)">
<path d="M53.4287 31.2804C53.4287 32.9697 52.3265 34.3365 50.9696 34.3365H31.1734C30.5212 34.3365 29.8958 34.0145 29.4346 33.4414C28.9734 32.8682 28.7144 32.0909 28.7144 31.2804C28.7144 30.4699 28.9734 29.6925 29.4346 29.1194C29.8958 28.5463 30.5212 28.2243 31.1734 28.2243L50.9696 28.2243C51.6218 28.2243 52.2473 28.5463 52.7085 29.1194C53.1696 29.6925 53.4287 30.4699 53.4287 31.2804Z" fill="black"/>
<path d="M53.4287 17.1682C53.4287 18.8575 52.3265 20.2243 50.9696 20.2243L6.45908 20.2243C5.80689 20.2243 5.18142 19.9023 4.72025 19.3292C4.25908 18.7561 4 17.9788 4 17.1682C4 16.3577 4.25908 15.5804 4.72025 15.0073C5.18142 14.4341 5.80689 14.1122 6.45908 14.1122L50.9696 14.1122C51.6218 14.1122 52.2473 14.4341 52.7085 15.0073C53.1696 15.5804 53.4287 16.3577 53.4287 17.1682Z" fill="#309D8F"/>
<path d="M50.9696 6.11215C51.6218 6.11215 52.2473 5.79018 52.7085 5.21705C53.1696 4.64393 53.4287 3.86661 53.4287 3.05608C53.4287 2.24556 53.1696 1.46824 52.7085 0.895117C52.2473 0.321992 51.6218 1.19209e-05 50.9696 1.19209e-05L21.2877 1.19209e-05C20.6355 1.19209e-05 20.01 0.321992 19.5489 0.895117C19.0877 1.46824 18.8286 2.24556 18.8286 3.05608C18.8286 3.86661 19.0877 4.64393 19.5489 5.21705C20.01 5.79018 20.6355 6.11215 21.2877 6.11215L50.9696 6.11215Z" fill="black"/>
</g>
<defs>
<filter id="filter0_d_225_67" x="0" y="0" width="57.4287" height="42.3365" filterUnits="userSpaceOnUse" color-interpolation-filters="sRGB">
<feFlood flood-opacity="0" result="BackgroundImageFix"/>
<feColorMatrix in="SourceAlpha" type="matrix" values="0 0 0 0 0 0 0 0 0 0 0 0 0 0 0 0 0 0 127 0" result="hardAlpha"/>
<feOffset dy="4"/>
<feGaussianBlur stdDeviation="2"/>
<feComposite in2="hardAlpha" operator="out"/>
<feColorMatrix type="matrix" values="0 0 0 0 0 0 0 0 0 0 0 0 0 0 0 0 0 0 0.25 0"/>
<feBlend mode="normal" in2="BackgroundImageFix" result="effect1_dropShadow_225_67"/>
<feBlend mode="normal" in="SourceGraphic" in2="effect1_dropShadow_225_67" result="shape"/>
</filter>
</defs>
</svg>
