<svg width="24" height="23" viewBox="0 0 24 23" fill="none" xmlns="http://www.w3.org/2000/svg">
<path d="M22.1653 10.8594C23.7979 9.66569 22.9535 7.08034 20.9311 7.08034H16.8889C15.9795 7.08034 15.1743 6.4925 14.8972 5.62625L13.6423 1.70242C13.0223 -0.236372 10.279 -0.236373 9.65892 1.70242L8.404 5.62625C8.12696 6.4925 7.32178 7.08034 6.41231 7.08034H2.30494C0.288935 7.08034 -0.55964 9.65212 1.06049 10.8519L4.43892 13.3538C5.15673 13.8853 5.45765 14.8141 5.18794 15.6656L3.92827 19.6426C3.31606 21.5754 5.53685 23.1611 7.16619 21.9545L10.4062 19.5551C11.1455 19.0076 12.1558 19.0076 12.8951 19.5551L16.1102 21.9361C17.742 23.1444 19.9649 21.5526 19.3464 19.6186L18.0693 15.6255C17.7951 14.7682 18.1002 13.8317 18.8268 13.3005L22.1653 10.8594Z" fill="#FFCE31"/>
</svg>
